<?xml version="1.0" encoding="UTF-8" standalone="no"?>
<!-- Created with Inkscape (http://www.inkscape.org/) -->

<svg
   xmlns:dc="http://purl.org/dc/elements/1.1/"
   xmlns:cc="http://creativecommons.org/ns#"
   xmlns:rdf="http://www.w3.org/1999/02/22-rdf-syntax-ns#"
   xmlns:svg="http://www.w3.org/2000/svg"
   xmlns="http://www.w3.org/2000/svg"
   xmlns:sodipodi="http://sodipodi.sourceforge.net/DTD/sodipodi-0.dtd"
   xmlns:inkscape="http://www.inkscape.org/namespaces/inkscape"
   width="144.1983mm"
   height="37.253345mm"
   viewBox="0 0 510.93868 132"
   id="svg2"
   version="1.1"
   inkscape:version="0.91 r13725"
   sodipodi:docname="plane.svg">
  <defs
     id="defs4" />
  <sodipodi:namedview
     id="base"
     pagecolor="#ffffff"
     bordercolor="#666666"
     borderopacity="1.0"
     inkscape:pageopacity="0.0"
     inkscape:pageshadow="2"
     inkscape:zoom="0.48790368"
     inkscape:cx="538.81922"
     inkscape:cy="524.37981"
     inkscape:document-units="px"
     inkscape:current-layer="layer1"
     showgrid="false"
     inkscape:snap-bbox="true"
     inkscape:object-paths="true"
     inkscape:window-width="1280"
     inkscape:window-height="962"
     inkscape:window-x="2382"
     inkscape:window-y="88"
     inkscape:window-maximized="1"
     fit-margin-top="0"
     fit-margin-left="0"
     fit-margin-right="0"
     fit-margin-bottom="0" />
  <metadata
     id="metadata7">
    <rdf:RDF>
      <cc:Work
         rdf:about="">
        <dc:format>image/svg+xml</dc:format>
        <dc:type
           rdf:resource="http://purl.org/dc/dcmitype/StillImage" />
        <dc:title></dc:title>
      </cc:Work>
    </rdf:RDF>
  </metadata>
  <g
     inkscape:label="Capa 1"
     inkscape:groupmode="layer"
     id="layer1"
     transform="translate(-2.7783474,-920.72591)">
    <g
       id="g3470"
       transform="translate(3.0443032,730.72591)">
      <path
         id="path3472"
         d="m 157,285 c -10,0 -19,8 -19,18 0,10 9,19 19,19 10,0 18,-9 18,-19 0,-10 -8,-18 -18,-18 m 0,31 c -7,0 -13,-6 -13,-13 0,-7 6,-13 13,-13 7,0 13,6 13,13 0,7 -6,13 -13,13 m 197,-31 c -10,0 -19,8 -19,18 0,10 9,19 19,19 10,0 18,-9 18,-19 0,-10 -8,-18 -18,-18 m 0,31 c -7,0 -13,-6 -13,-13 0,-7 6,-13 13,-13 7,0 13,6 13,13 0,7 -6,13 -13,13 m 154,-93 c -7,8 -17,14 -27,18 -15,7 -32,12 -48,17 -50,14 -96,19 -147,26 0,-1 0,-2 0,-3 0,-5 0,-9 -2,-12 l 47,-6 c 0,0 2,-1 2,-2 0,0 -3,0 -3,0 l -48,4 c -4,-8 -13,-14 -24,-15 l -1,-54 c 0,0 0,-6 -2,-6 -1,0 -1,6 -1,6 l -2,54 c -10,1 -19,7 -24,15 l -48,-4 c 0,0 -2,0 -2,0 0,1 2,2 2,2 l 47,6 c -2,3 -3,7 -3,12 0,1 0,2 0,3 C 173,277 128,272 78,258 61,253 45,248 30,241 20,237 10,231 3,223 c -2,-1 -4,1 -3,2 1,1 1,1 1,1 8,8 18,14 28,18 15,7 32,12 48,17 50,14 100,29 152,36 0,0 0,0 0,0 6,9 15,15 26,15 11,0 21,-6 27,-15 l 0,0 c 51,-7 101,-22 152,-36 16,-5 32,-10 48,-17 10,-4 20,-10 28,-18 0,0 0,0 0,-1 2,-1 -1,-3 -2,-2 m -234,52 c -1,1 -6,2 -7,2 0,0 0,0 0,0 0,0 0,0 0,0 l -10,0 -4,0 -9,0 c 0,0 0,0 0,0 0,0 0,0 0,0 -1,0 -7,-1 -7,-2 0,-1 0,-1 0,-1 l 0,0 c 0,0 0,0 0,0 0,0 0,0 0,0 0,-1 2,-4 3,-5 0,0 4,0 4,0 l 9,1 4,0 10,-1 c 0,0 3,0 4,0 1,1 2,4 3,5 0,0 0,0 0,0 0,0 0,0 0,0 l 0,0 c 0,0 0,0 0,1"
         inkscape:connector-curvature="0"
         style="fill:#000000" />
    </g>
  </g>
</svg>
